<svg width="857" height="987" viewBox="0 0 857 987" fill="none" xmlns="http://www.w3.org/2000/svg">
<path fill-rule="evenodd" clip-rule="evenodd" d="M746.475 426.628C748.799 409.751 750 392.516 750 375C750 355.018 748.437 335.402 745.427 316.266H603.144C595.12 347.444 566.817 370.482 533.133 370.482C493.209 370.482 460.844 338.117 460.844 298.193C460.844 258.269 493.209 225.904 533.133 225.904C566.817 225.904 595.12 248.942 603.144 280.121H737.893C695.873 118.954 549.328 0 375 0C242.828 0 126.627 68.3792 59.8424 171.691H219.148C227.172 140.513 255.475 117.475 289.159 117.475C329.083 117.475 361.448 149.84 361.448 189.764C361.448 229.688 329.083 262.053 289.159 262.053C255.475 262.053 227.172 239.015 219.148 207.836H39.2276C14.1223 258.166 0 314.934 0 375C0 470.318 35.5623 557.329 94.1427 623.49H237.219C245.244 592.311 273.547 569.273 307.231 569.273C347.155 569.273 379.52 601.638 379.52 641.563C379.52 681.487 347.155 713.852 307.231 713.852C273.547 713.852 245.244 690.814 237.219 659.635H130.842C196.448 715.963 281.749 750 375 750C503.278 750 616.513 685.59 684.127 587.348H639.285C631.26 618.526 602.957 641.564 569.273 641.564C529.349 641.564 496.984 609.2 496.984 569.275C496.984 529.351 529.349 496.986 569.273 496.986C602.957 496.986 631.26 520.024 639.285 551.203H706.109C720.832 523.595 732.202 493.929 739.678 462.748L368.41 461.374C360.268 492.52 331.881 515.451 298.2 515.326C258.276 515.179 226.031 482.694 226.178 442.77C226.326 402.846 258.811 370.601 298.734 370.749C332.42 370.874 360.639 394.019 368.547 425.23L746.475 426.628Z" fill="url(#paint0_linear_44_11)"/>
<circle cx="289.158" cy="189.76" r="36.1446" fill="#173A6A"/>
<circle cx="533.131" cy="298.191" r="36.1446" fill="#173A6A"/>
<circle cx="569.28" cy="569.281" r="36.1446" fill="#173A6A"/>
<circle cx="307.231" cy="641.566" r="36.1446" fill="#173A6A"/>
<circle cx="298.195" cy="442.773" r="36.1446" fill="#173A6A"/>
<path d="M13.2 875V770H60.45C67.15 770 73.2 771.45 78.6 774.35C84.1 777.25 88.4 781.25 91.5 786.35C94.6 791.35 96.15 797.05 96.15 803.45C96.15 810.05 94.6 816 91.5 821.3C88.4 826.5 84.15 830.6 78.75 833.6C73.35 836.6 67.25 838.1 60.45 838.1H37.5V875H13.2ZM71.4 875L44.7 827.6L70.8 823.85L100.5 875H71.4ZM37.5 818.6H58.2C60.8 818.6 63.05 818.05 64.95 816.95C66.95 815.75 68.45 814.1 69.45 812C70.55 809.9 71.1 807.5 71.1 804.8C71.1 802.1 70.5 799.75 69.3 797.75C68.1 795.65 66.35 794.05 64.05 792.95C61.85 791.85 59.15 791.3 55.95 791.3H37.5V818.6ZM111.022 875V770H184.222V791.75H135.772V853.25H185.722V875H111.022ZM123.022 831.95V811.25H177.472V831.95H123.022ZM200.202 875V770H223.002L278.052 845L273.102 844.25C272.602 840.95 272.202 837.8 271.902 834.8C271.602 831.8 271.302 828.85 271.002 825.95C270.802 823.05 270.602 820.1 270.402 817.1C270.302 814.1 270.202 810.85 270.102 807.35C270.102 803.85 270.102 800.05 270.102 795.95V770H294.852V875H271.752L214.302 797.6L221.952 798.65C222.452 803.45 222.852 807.55 223.152 810.95C223.552 814.25 223.852 817.2 224.052 819.8C224.352 822.4 224.552 824.75 224.652 826.85C224.752 828.95 224.802 831.05 224.802 833.15C224.902 835.15 224.952 837.4 224.952 839.9V875H200.202ZM300.348 875L341.898 770H363.498L404.748 875H378.948L359.148 821.75C358.348 819.65 357.548 817.4 356.748 815C355.948 812.6 355.148 810.15 354.348 807.65C353.548 805.05 352.748 802.55 351.948 800.15C351.248 797.65 350.648 795.35 350.148 793.25L354.648 793.1C354.048 795.6 353.348 798.05 352.548 800.45C351.848 802.85 351.098 805.25 350.298 807.65C349.598 809.95 348.798 812.3 347.898 814.7C346.998 817 346.148 819.4 345.348 821.9L325.548 875H300.348ZM320.148 854.9L328.098 835.7H376.398L384.198 854.9H320.148ZM410.348 875V770H457.598C464.298 770 470.348 771.45 475.748 774.35C481.248 777.25 485.548 781.25 488.648 786.35C491.748 791.35 493.298 797.05 493.298 803.45C493.298 810.05 491.748 816 488.648 821.3C485.548 826.5 481.298 830.6 475.898 833.6C470.498 836.6 464.398 838.1 457.598 838.1H434.648V875H410.348ZM468.548 875L441.848 827.6L467.948 823.85L497.648 875H468.548ZM434.648 818.6H455.348C457.948 818.6 460.198 818.05 462.098 816.95C464.098 815.75 465.598 814.1 466.598 812C467.698 809.9 468.248 807.5 468.248 804.8C468.248 802.1 467.648 799.75 466.448 797.75C465.248 795.65 463.498 794.05 461.198 792.95C458.998 791.85 456.298 791.3 453.098 791.3H434.648V818.6ZM42.9 985V932.65L43.95 940L1.5 880H21L53.4 926.5L49.65 926.05L78.9 880H97.5L56.85 941.65L59.1 931.45V985H42.9ZM83.2617 985L123.912 880H140.412L180.762 985H163.512L139.512 921.7C139.212 921 138.612 919.3 137.712 916.6C136.912 913.9 135.962 910.9 134.862 907.6C133.762 904.3 132.762 901.3 131.862 898.6C130.962 895.8 130.362 894 130.062 893.2L133.512 893.05C132.912 894.75 132.162 896.9 131.262 899.5C130.462 902.1 129.562 904.85 128.562 907.75C127.662 910.65 126.762 913.4 125.862 916C124.962 918.5 124.212 920.6 123.612 922.3L99.7617 985H83.2617ZM101.262 958.9L107.262 943.3H154.962L161.862 958.9H101.262ZM235.761 986.5C228.161 986.5 221.061 985.15 214.461 982.45C207.861 979.65 202.061 975.8 197.061 970.9C192.061 966 188.161 960.3 185.361 953.8C182.661 947.2 181.311 940.1 181.311 932.5C181.311 925 182.661 918 185.361 911.5C188.161 905 192.011 899.35 196.911 894.55C201.911 889.65 207.711 885.85 214.311 883.15C220.911 880.45 228.011 879.1 235.611 879.1C240.911 879.1 246.061 879.85 251.061 881.35C256.161 882.85 260.761 884.95 264.861 887.65C268.961 890.35 272.311 893.45 274.911 896.95L264.411 907.9C261.411 905 258.311 902.6 255.111 900.7C252.011 898.8 248.811 897.35 245.511 896.35C242.211 895.35 238.911 894.85 235.611 894.85C230.211 894.85 225.211 895.8 220.611 897.7C216.111 899.6 212.111 902.25 208.611 905.65C205.211 909.05 202.561 913.05 200.661 917.65C198.761 922.15 197.811 927.1 197.811 932.5C197.811 937.7 198.811 942.65 200.811 947.35C202.811 951.95 205.561 956 209.061 959.5C212.661 963 216.761 965.75 221.361 967.75C226.061 969.75 231.011 970.75 236.211 970.75C240.111 970.75 243.811 970.2 247.311 969.1C250.811 967.9 253.911 966.25 256.611 964.15C259.311 962.05 261.411 959.65 262.911 956.95C264.411 954.15 265.161 951.2 265.161 948.1V945.1L267.411 947.2H235.311V931.15H281.811C282.011 932.25 282.161 933.35 282.261 934.45C282.361 935.45 282.411 936.45 282.411 937.45C282.511 938.35 282.561 939.25 282.561 940.15C282.561 947.05 281.361 953.35 278.961 959.05C276.561 964.65 273.211 969.5 268.911 973.6C264.711 977.7 259.761 980.9 254.061 983.2C248.461 985.4 242.361 986.5 235.761 986.5ZM283.74 985L324.39 880H340.89L381.24 985H363.99L339.99 921.7C339.69 921 339.09 919.3 338.19 916.6C337.39 913.9 336.44 910.9 335.34 907.6C334.24 904.3 333.24 901.3 332.34 898.6C331.44 895.8 330.84 894 330.54 893.2L333.99 893.05C333.39 894.75 332.64 896.9 331.74 899.5C330.94 902.1 330.04 904.85 329.04 907.75C328.14 910.65 327.24 913.4 326.34 916C325.44 918.5 324.69 920.6 324.09 922.3L300.24 985H283.74ZM301.74 958.9L307.74 943.3H355.44L362.34 958.9H301.74ZM392.22 985V880H408.42V985H392.22ZM399.42 940.3V924.7H453.57V940.3H399.42ZM399.42 895.6V880H460.32V895.6H399.42ZM455.068 985L495.718 880H512.218L552.568 985H535.318L511.318 921.7C511.018 921 510.418 919.3 509.518 916.6C508.718 913.9 507.768 910.9 506.668 907.6C505.568 904.3 504.568 901.3 503.668 898.6C502.768 895.8 502.168 894 501.868 893.2L505.318 893.05C504.718 894.75 503.968 896.9 503.068 899.5C502.268 902.1 501.368 904.85 500.368 907.75C499.468 910.65 498.568 913.4 497.668 916C496.768 918.5 496.018 920.6 495.418 922.3L471.568 985H455.068ZM473.068 958.9L479.068 943.3H526.768L533.668 958.9H473.068ZM563.548 985V880H608.248C614.248 880 619.748 881.5 624.748 884.5C629.848 887.4 633.898 891.4 636.898 896.5C639.898 901.5 641.398 907.15 641.398 913.45C641.398 919.15 639.898 924.45 636.898 929.35C633.898 934.25 629.898 938.2 624.898 941.2C619.898 944.1 614.348 945.55 608.248 945.55H579.748V985H563.548ZM625.948 985L599.248 937.6L615.898 933.85L645.598 985.15L625.948 985ZM579.748 929.95H609.748C612.648 929.95 615.248 929.25 617.548 927.85C619.848 926.35 621.648 924.35 622.948 921.85C624.248 919.25 624.898 916.4 624.898 913.3C624.898 909.8 624.048 906.75 622.348 904.15C620.748 901.45 618.448 899.35 615.448 897.85C612.548 896.35 609.248 895.6 605.548 895.6H579.748V929.95ZM702.83 986.5C695.43 986.5 688.58 985.15 682.28 982.45C676.08 979.75 670.63 976 665.93 971.2C661.33 966.3 657.73 960.6 655.13 954.1C652.63 947.5 651.38 940.3 651.38 932.5C651.38 924.7 652.63 917.55 655.13 911.05C657.73 904.45 661.33 898.75 665.93 893.95C670.63 889.05 676.08 885.25 682.28 882.55C688.58 879.85 695.43 878.5 702.83 878.5C710.23 878.5 717.03 879.85 723.23 882.55C729.53 885.25 734.98 889.05 739.58 893.95C744.28 898.85 747.88 904.6 750.38 911.2C752.98 917.7 754.28 924.8 754.28 932.5C754.28 940.2 752.98 947.35 750.38 953.95C747.88 960.45 744.28 966.15 739.58 971.05C734.98 975.95 729.53 979.75 723.23 982.45C717.03 985.15 710.23 986.5 702.83 986.5ZM702.83 970.75C707.93 970.75 712.58 969.8 716.78 967.9C721.08 966 724.78 963.35 727.88 959.95C730.98 956.45 733.38 952.4 735.08 947.8C736.88 943.1 737.78 938 737.78 932.5C737.78 927 736.88 921.95 735.08 917.35C733.38 912.65 730.98 908.6 727.88 905.2C724.78 901.7 721.08 899 716.78 897.1C712.58 895.2 707.93 894.25 702.83 894.25C697.73 894.25 693.03 895.2 688.73 897.1C684.53 899 680.83 901.65 677.63 905.05C674.53 908.45 672.13 912.5 670.43 917.2C668.73 921.8 667.88 926.9 667.88 932.5C667.88 938 668.73 943.1 670.43 947.8C672.13 952.5 674.53 956.55 677.63 959.95C680.83 963.35 684.53 966 688.73 967.9C693.03 969.8 697.73 970.75 702.83 970.75ZM795.073 985L753.073 880H771.523L796.573 943.75C797.773 946.85 798.823 949.65 799.723 952.15C800.723 954.65 801.573 956.95 802.273 959.05C802.973 961.05 803.623 962.95 804.223 964.75C804.823 966.55 805.423 968.35 806.023 970.15L802.123 970.3C802.823 967.9 803.573 965.4 804.373 962.8C805.173 960.2 806.073 957.35 807.073 954.25C808.173 951.15 809.473 947.65 810.973 943.75L834.223 880H853.123L810.823 985H795.073Z" fill="black"/>
<defs>
<linearGradient id="paint0_linear_44_11" x1="194.277" y1="695.783" x2="515.06" y2="131.024" gradientUnits="userSpaceOnUse">
<stop stop-color="#03194C"/>
<stop offset="1" stop-color="#5DACD3"/>
</linearGradient>
</defs>
</svg>
